#N canvas 555 104 789 824 12;
#X declare -path ./bop;
#X declare -path ./bop/babs;
#X declare -path ../../pd;
#X obj 32 14 cnv 19 370 40 empty empty plantsOS\ 🥶\ coldvoice 70 20 0 16 #c6ffc7 #e3c6ff 0;
#X obj 338 32 nbx 4 17 -1e+37 1e+37 0 1 version empty version 0 -10 0 12 #c6ffc7 #000000 #000000 38 256;
#X obj 32 70 cnv 19 370 150 empty empty empty 20 12 0 12 #e3c6ff #404040 0;
#X obj 32 244 cnv 19 370 150 empty empty empty 20 12 0 12 #c6feff #404040 0;
#X text 37 248 VOICES;
#N canvas 408 37 1062 885 mapping 0;
#X obj 644 250 s calibrate;
#X obj 643 178 bng 19 250 50 0 empty empty empty 0 -10 0 12 #fcfcfc #000000 #000000;
#X obj 519 137 loadbang;
#X obj 423 841 r osc-in;
#X obj 427 990 s sensitivity;
#X obj 554 993 s floor;
#X text 426 818 set sensitivity;
#X obj 423 865 route sens sensitivity floor;
#X obj 477 233 line~;
#X obj 655 214 s click;
#X obj 809 932 r osc-in;
#X obj 809 956 route backing;
#X obj 809 1050 s bg-gain;
#X obj 832 989 loadbang;
#X msg 825 1021 0.1;
#X text 806 892 set backing;
#X obj 97 647 bng 19 250 50 0 empty empty empty 0 -10 0 12 #fcfcfc #000000 #000000;
#X obj 97 623 metro 1 1 min;
#X obj 173 595 * 60;
#X obj 101 509 loadbang;
#X text 83 479 calibrate every n hours;
#X msg 101 568 1;
#X obj 97 685 s calibrate;
#X msg 178 562 6;
#X obj 267 582 r osc-in;
#X obj 267 606 route calibrate;
#X obj 270 639 bng 19 250 50 0 empty empty empty 0 -10 0 12 #fcfcfc #000000 #000000;
#X obj 270 677 s calibrate;
#X text 256 549 calibrate;
#X msg 104 915 \$1;
#X msg 226 919 \$1;
#X obj 103 1014 s sensor1;
#X obj 226 1014 s sensor2;
#X obj 103 979 filter-and-scale;
#X obj 226 978 filter-and-scale;
#X obj 100 840 r osc-in;
#X obj 100 864 route touch1 touch2;
#X text 1826 1330 comment;
#X obj 101 91 r osc-in;
#X obj 101 115 route adc;
#X obj 101 140 unpack f f f f;
#X obj 139 250 s pot;
#X obj 135 179 / 3.3;
#X obj 135 203 expr 1 - $f1;
#X obj 475 116 r pot;
#X obj 477 263 s~ knob;
#X msg 519 161 1;
#X obj 395 578 loadbang;
#X msg 476 204 \$1 100;
#X obj 395 602 delay 1000;
#X obj 203 351 s keyup;
#X obj 101 353 s keydown;
#N canvas 106 256 633 538 button-logic 0;
#X obj 116 59 inlet;
#X obj 126 491 outlet;
#X obj 332 502 outlet;
#X obj 242 126 moses 0.55;
#X obj 312 171 moses 1.2;
#X obj 376 207 moses 1.8;
#X obj 440 248 moses 2.5;
#X msg 509 312 0;
#X msg 431 288 1;
#X msg 364 258 2;
#X msg 302 216 3;
#X msg 253 173 4;
#X msg 149 146 5;
#X obj 243 333 i;
#X obj 243 358 change;
#X obj 174 81 moses 0.2;
#X obj 273 402 sel 0;
#X obj 221 403 t i i;
#X obj 228 446 i;
#X obj 147 422 route 0;
#X text 439 70 button volts 0 0.458 1.047 1.614 2.383, f 6;
#X floatatom 286 461 5 0 0 0 - - - 0;
#X floatatom 349 405 5 0 0 0 - - - 0;
#X obj 366 454 bng 19 250 50 0 empty empty empty 0 -10 0 12 #fcfcfc #000000 #000000;
#X connect 0 0 15 0;
#X connect 3 0 11 0;
#X connect 3 1 4 0;
#X connect 4 0 10 0;
#X connect 4 1 5 0;
#X connect 5 0 9 0;
#X connect 5 1 6 0;
#X connect 6 0 8 0;
#X connect 6 1 7 0;
#X connect 7 0 13 0;
#X connect 8 0 13 0;
#X connect 9 0 13 0;
#X connect 10 0 13 0;
#X connect 11 0 13 0;
#X connect 12 0 13 0;
#X connect 13 0 14 0;
#X connect 14 0 17 0;
#X connect 14 0 19 0;
#X connect 14 0 22 0;
#X connect 15 0 12 0;
#X connect 15 1 3 0;
#X connect 16 0 18 0;
#X connect 16 0 23 0;
#X connect 17 0 18 1;
#X connect 17 1 16 0;
#X connect 18 0 2 0;
#X connect 18 0 21 0;
#X connect 19 1 1 0;
#X restore 101 302 pd button-logic;
#X obj 100 385 r keydown;
#X obj 206 410 print keyup;
#X obj 100 409 print keydown;
#X obj 206 386 r keyup;
#X obj 641 120 r keydown;
#X obj 641 144 sel 4;
#X text 95 16 ADC0 keys \; ADC1 pot \; ADC2 nc \; ADC3 nc \;;
#X text 471 85 pot -> master gain;
#X text 839 75 red press -> reboot \; red hold -> shutdown \;;
#X text 628 87 green -> calibrate;
#X obj 1029 205 bng 19 250 50 0 empty empty empty 0 -10 0 12 #fcfcfc #000000 #000000;
#X obj 1030 150 r keydown;
#X obj 827 133 r keyup;
#X obj 1032 311 delay 3000;
#X obj 870 460 s osc-in;
#X msg 907 259 stop;
#X obj 836 220 bng 19 250 50 0 empty empty empty 0 -10 0 12 #fcfcfc #000000 #000000;
#X obj 851 603 s osc-in;
#X text 1228 86 white press -> update patch \; white hold -> update bopos \;;
#X obj 1030 174 sel 1;
#X obj 831 188 sel 1;
#X obj 1043 235 s click;
#X floatatom 914 136 5 0 0 0 - - - 0;
#X msg 1022 424 0;
#X obj 850 528 babs.gate 1;
#X msg 973 507 1;
#X obj 869 363 t b b, f 24;
#X obj 1391 221 bng 19 250 50 0 empty empty empty 0 -10 0 12 #fcfcfc #000000 #000000;
#X obj 1392 166 r keydown;
#X obj 1189 149 r keyup;
#X obj 1394 327 delay 3000;
#X obj 1232 476 s osc-in;
#X msg 1269 275 stop;
#X obj 1198 236 bng 19 250 50 0 empty empty empty 0 -10 0 12 #fcfcfc #000000 #000000;
#X obj 1213 619 s osc-in;
#X obj 1392 190 sel 1;
#X obj 1193 204 sel 1;
#X msg 1215 584 helper pullpatch;
#X msg 1234 441 helper update;
#X obj 1405 251 s click;
#X floatatom 1276 152 5 0 0 0 - - - 0;
#X msg 1384 440 0;
#X obj 1212 544 babs.gate 1;
#X msg 1335 523 1;
#X obj 1231 379 t b b, f 24;
#X msg 872 425 helper shutdown;
#X msg 853 568 helper reboot;
#X text 308 347 5=red-left \; 4=green-up \; 3=yellow-down \; 2=blue-right \; 1=white-enter \;, f 17;
#X connect 1 0 9 0;
#X connect 1 0 0 0;
#X connect 2 0 46 0;
#X connect 3 0 7 0;
#X connect 7 0 4 0;
#X connect 7 1 4 0;
#X connect 7 2 5 0;
#X connect 8 0 45 0;
#X connect 10 0 11 0;
#X connect 11 0 12 0;
#X connect 13 0 14 0;
#X connect 14 0 12 0;
#X connect 16 0 22 0;
#X connect 17 0 16 0;
#X connect 18 0 17 1;
#X connect 19 0 23 0;
#X connect 19 0 21 0;
#X connect 21 0 17 0;
#X connect 23 0 18 0;
#X connect 24 0 25 0;
#X connect 25 0 26 0;
#X connect 26 0 27 0;
#X connect 29 0 33 0;
#X connect 30 0 34 0;
#X connect 33 0 31 0;
#X connect 34 0 32 0;
#X connect 35 0 36 0;
#X connect 36 0 29 0;
#X connect 36 1 30 0;
#X connect 38 0 39 0;
#X connect 39 0 40 0;
#X connect 40 0 52 0;
#X connect 40 1 42 0;
#X connect 42 0 43 0;
#X connect 43 0 41 0;
#X connect 44 0 48 0;
#X connect 46 0 48 0;
#X connect 47 0 49 0;
#X connect 48 0 8 0;
#X connect 49 0 26 0;
#X connect 52 0 51 0;
#X connect 52 1 50 0;
#X connect 53 0 55 0;
#X connect 56 0 54 0;
#X connect 57 0 58 0;
#X connect 58 0 1 0;
#X connect 63 0 66 0;
#X connect 63 0 74 0;
#X connect 64 0 72 0;
#X connect 65 0 73 0;
#X connect 66 0 79 0;
#X connect 68 0 66 0;
#X connect 69 0 68 0;
#X connect 69 0 77 0;
#X connect 72 0 63 0;
#X connect 73 0 69 0;
#X connect 75 0 73 0;
#X connect 76 0 77 1;
#X connect 77 0 99 0;
#X connect 78 0 77 1;
#X connect 79 0 98 0;
#X connect 79 1 76 0;
#X connect 80 0 83 0;
#X connect 80 0 92 0;
#X connect 81 0 88 0;
#X connect 82 0 89 0;
#X connect 83 0 97 0;
#X connect 85 0 83 0;
#X connect 86 0 85 0;
#X connect 86 0 95 0;
#X connect 88 0 80 0;
#X connect 89 0 86 0;
#X connect 90 0 87 0;
#X connect 91 0 84 0;
#X connect 93 0 89 0;
#X connect 94 0 95 1;
#X connect 95 0 90 0;
#X connect 96 0 95 1;
#X connect 97 0 91 0;
#X connect 97 1 94 0;
#X connect 98 0 67 0;
#X connect 99 0 70 0;
#X restore 268 81 pd mapping;
#X f 16;
#X obj 435 462 declare -path ./bop, f 24;
#X obj 45 1676 dac~, f 39;
#X obj 47 422 catch~ left;
#X obj 340 427 catch~ right;
#X obj 338 797 bop.reverb~;
#A saved size 0.592857;
#A saved damp 0.835714;
#A saved cutoff 5000;
#A saved wet 0.857143;
#A saved dry 1;
#X obj 435 491 declare -path ./bop/babs;
#X obj 317 1128 *~;
#X obj 45 1112 *~;
#N canvas 507 56 614 872 getvoice 0;
#X obj 190 553 babs.counter, f 16;
#X obj 242 798 file handle;
#X obj 348 691 file which;
#X obj 348 727 unpack s f;
#X msg 348 655 symbol persist/voice.txt;
#X msg 348 758 open \$1 c;
#X obj 190 262 file handle;
#X obj 279 150 file which;
#X obj 279 186 unpack s f;
#X msg 279 114 symbol persist/voice.txt;
#X obj 190 10 loadbang;
#X floatatom 190 394 5 0 0 0 - - - 0;
#X obj 190 43 bng 19 250 50 0 empty empty empty 0 -10 0 12 #fcfcfc #000000 #000000;
#X msg 279 217 open \$1;
#X obj 190 70 t b b, f 13;
#X msg 190 143 1 \, close;
#X msg 242 679 close;
#X obj 295 729 + 48;
#X obj 190 300 - 48;
#X obj 190 615 t f b f b, f 23;
#X obj 264 303 print file-write;
#X text 394 183 read voice from file at load;
#X text 451 717 save voice to file;
#X obj 190 108 delay 5;
#X obj 190 495 s \$0-nextvoice;
#X obj 190 524 r \$0-nextvoice;
#X obj 190 826 s active-voice;
#X floatatom 17 47 12 0 0 0 - active-voice - 0;
#X obj 203 335 r osc-in;
#X obj 190 426 t b f, f 16;
#X obj 203 359 route voice;
#X text 275 334 receive voice as OSC command;
#X obj 17 18 bng 19 250 50 0 \$0-nextvoice \$0-nextvoice next\ voice 24 10 0 12 #fcfcfc #000000 #000000;
#X floatatom 262 582 5 0 0 0 - - - 0;
#X floatatom 114 575 5 0 0 0 - - - 0;
#X obj 190 577 % 6;
#X connect 0 0 33 0;
#X connect 0 0 35 0;
#X connect 2 0 3 0;
#X connect 3 0 5 0;
#X connect 4 0 2 0;
#X connect 5 0 1 0;
#X connect 6 0 18 0;
#X connect 6 1 20 0;
#X connect 7 0 8 0;
#X connect 8 0 13 0;
#X connect 9 0 7 0;
#X connect 10 0 12 0;
#X connect 11 0 29 0;
#X connect 12 0 14 0;
#X connect 13 0 6 0;
#X connect 14 0 23 0;
#X connect 14 1 9 0;
#X connect 15 0 6 0;
#X connect 16 0 1 0;
#X connect 17 0 1 0;
#X connect 18 0 11 0;
#X connect 19 0 26 0;
#X connect 19 1 16 0;
#X connect 19 2 17 0;
#X connect 19 3 4 0;
#X connect 23 0 15 0;
#X connect 25 0 0 0;
#X connect 28 0 30 0;
#X connect 29 0 24 0;
#X connect 29 1 0 1;
#X connect 30 0 11 0;
#X connect 35 0 19 0;
#X connect 35 0 34 0;
#X coords 0 -1 1 1 115 65 2 10 10;
#X restore 266 265 pd getvoice;
#X obj 41 268 voice.0 0;
#X obj 41 287 voice.1 1;
#X obj 43 171 bng 19 250 50 0 calibrate calibrate calibrate 21 10 0 12 #fcfcfc #000000 #000000;
#X obj 43 127 nbx 4 17 0 50 0 1 sensitivity sensitivity sensitvity 55 8 0 12 #fcfcfc #000000 #000000 4 256;
#X obj 43 149 nbx 4 17 0 1 0 1 floor floor floor 55 8 0 12 #fcfcfc #000000 #000000 0.1 256;
#X obj 45 1153 clip~ -1 1;
#X obj 317 1161 clip~ -1 1;
#X obj 47 792 bop.reverb~;
#A saved size 0.592857;
#A saved damp 0.835714;
#A saved cutoff 5000;
#A saved wet 0.857143;
#A saved dry 1;
#X obj 41 306 voice.2 2;
#X obj 41 325 voice.3 3;
#X obj 46 79 hsl 162 19 0 1 0 0 sensor1 empty sensor1 10 10 0 12 #fcfcfc #000000 #000000 0 1;
#X obj 46 98 hsl 162 19 0 1 0 0 sensor2 empty sensor2 10 10 0 12 #fcfcfc #000000 #000000 0 1;
#X obj 426 15 cnv 19 250 200 empty empty bopOS\ boilerplate 20 12 0 12 #c7c6ff #404040 0;
#X obj 444 127 declare -path ../../pd;
#X msg 444 84 \; pd dsp 1;
#X obj 444 55 loadbang, f 9;
#X obj 444 165 bopos.osc, f 10;
#X obj 444 146 bopos.feedback, f 16;
#X msg 436 276 io create touch1 mpr121 0x5A;
#X msg 455 303 io create touch2 mpr121 0x5C;
#X obj 436 427 s osc-in;
#X obj 471 242 loadbang;
#X obj 109 544 noise~;
#X obj 109 568 lop~ 800;
#X obj 109 633 *~ 0.1, f 11;
#X msg 471 336 io create adc ads1115 0x48;
#X obj 63 1078 r~ knob;
#X obj 335 1097 r~ knob;
#X obj 162 1233 r osc-in;
#X obj 162 1257 route mute;
#X obj 162 1313 clip 0 1;
#X obj 45 1440 *~;
#X obj 299 1441 *~;
#X obj 160 854 r osc-in;
#X obj 160 902 clip 0 1;
#X obj 160 878 route gain;
#X obj 46 1026 *~;
#X obj 317 1029 *~;
#X obj 162 1284 expr 1- $f1;
#X msg 489 363 io create oled io_ssd1306 0x3C;
#X msg 518 165 id -1;
#X msg 522 187 id 0;
#X obj 183 520 r osc-in;
#X obj 183 544 route noise;
#X obj 183 603 babs.scale 0 1 0 0.2;
#X obj 183 572 clip 0 1;
#X obj 160 1372 line~;
#X msg 162 1341 \$1 10;
#X obj 158 958 line~;
#X msg 160 927 \$1 10;
#X obj 235 878 loadbang;
#X msg 235 902 0.2;
#X obj 239 1217 loadbang;
#X msg 239 1257 0;
#X obj 270 520 loadbang;
#X msg 269 904 1;
#X msg 270 544 0;
#X text 467 561 custom OSC messages noise [0 - 1] \; mute [0 - 1] \; gain [0 - 1] \; voice [0 - 3] \; calibrate \; sens [1 - 20] \; floor [0 - 1] \;;
#X obj 41 344 voice.4 4;
#X obj 41 363 voice.5 5;
#X obj 137 1490 t b b, f 12;
#X msg 217 1532 0;
#X msg 139 1546 1 1000;
#X obj 286 1609 *~;
#X obj 47 1608 *~;
#X obj 137 1461 loadbang;
#X obj 136 1580 line~;
#X text 128 1434 fade up on boot;
#X text 145 1108 physical knob gain;
#X text 157 827 /gain 0 - 1;
#X text 164 1196 /mute 0 - 1;
#X text 180 496 /noise 0 - 1;
#X obj 139 1522 delay 2000;
#X msg 475 389 io poll 30;
#X connect 8 0 22 0;
#X connect 9 0 10 0;
#X connect 10 0 52 1;
#X connect 12 0 21 0;
#X connect 13 0 20 0;
#X connect 20 0 46 0;
#X connect 21 0 47 1;
#X connect 22 0 51 0;
#X connect 30 0 29 0;
#X connect 33 0 35 0;
#X connect 34 0 35 0;
#X connect 36 0 33 0;
#X connect 36 0 34 0;
#X connect 36 0 40 0;
#X connect 36 0 54 0;
#X connect 36 0 88 0;
#X connect 37 0 38 0;
#X connect 38 0 39 0;
#X connect 39 0 22 0;
#X connect 39 0 10 0;
#X connect 40 0 35 0;
#X connect 41 0 13 1;
#X connect 42 0 12 1;
#X connect 43 0 44 0;
#X connect 44 0 53 0;
#X connect 45 0 62 0;
#X connect 46 0 79 0;
#X connect 47 0 78 1;
#X connect 48 0 50 0;
#X connect 49 0 64 0;
#X connect 50 0 49 0;
#X connect 51 0 13 0;
#X connect 52 0 12 0;
#X connect 53 0 45 0;
#X connect 55 0 31 0;
#X connect 56 0 31 0;
#X connect 57 0 58 0;
#X connect 58 0 60 0;
#X connect 59 0 39 1;
#X connect 60 0 59 0;
#X connect 61 0 46 1;
#X connect 61 0 47 0;
#X connect 62 0 61 0;
#X connect 63 0 52 0;
#X connect 63 0 51 1;
#X connect 64 0 63 0;
#X connect 65 0 66 0;
#X connect 66 0 49 0;
#X connect 67 0 68 0;
#X connect 68 0 53 0;
#X connect 69 0 71 0;
#X connect 70 0 49 0;
#X connect 71 0 60 0;
#X connect 75 0 87 0;
#X connect 75 1 76 0;
#X connect 76 0 81 0;
#X connect 77 0 81 0;
#X connect 78 0 7 1;
#X connect 79 0 7 0;
#X connect 80 0 75 0;
#X connect 81 0 78 0;
#X connect 81 0 79 1;
#X connect 87 0 77 0;
#X connect 88 0 35 0;
