#N canvas 717 47 690 824 12;
#X declare -path ./bop;
#X declare -path ./bop/babs;
#X declare -path ../../pd;
#X obj 32 14 cnv 19 370 40 empty empty plantsOS\ 🥶\ coldvoice 70 20 0 16 #c6ffc7 #e3c6ff 0;
#X obj 338 32 nbx 4 17 -1e+37 1e+37 0 1 version empty version 0 -10 0 12 #c6ffc7 #000000 #000000 24 256;
#X obj 32 70 cnv 19 370 150 empty empty empty 20 12 0 12 #e3c6ff #404040 0;
#X obj 32 244 cnv 19 370 150 empty empty empty 20 12 0 12 #c6feff #404040 0;
#X text 37 248 VOICES;
#N canvas 0 37 1470 891 mapping 0;
#X obj 110 397 s calibrate;
#X obj 108 253 bng 19 250 50 0 empty empty empty 0 -10 0 12 #fcfcfc #000000 #000000;
#X text 108 60 green \; calibrate \;;
#X obj 349 103 loadbang;
#X obj 86 205 sel 0 1;
#X obj 87 106 r buttons;
#X msg 87 130 \$1;
#X obj 423 781 r osc-in;
#X obj 427 930 s sensitivity;
#X obj 554 933 s floor;
#X text 426 758 set sensitivity;
#X obj 423 805 route sens sensitivity floor;
#X obj 640 804 loadbang;
#X obj 640 828 delay 2000;
#X obj 355 328 line~;
#X msg 354 299 \$1 10;
#X text 349 65 pot3 \; master gain;
#X obj 87 168 change;
#X obj 120 289 s click;
#X obj 107 332 delay 3000;
#X obj 123 365 s click;
#X obj 780 792 r osc-in;
#X obj 780 816 route backing;
#X obj 780 910 s bg-gain;
#X obj 803 849 loadbang;
#X msg 796 881 0.1;
#X text 777 752 set backing;
#X obj 97 647 bng 19 250 50 0 empty empty empty 0 -10 0 12 #fcfcfc #000000 #000000;
#X obj 97 623 metro 1 1 min;
#X obj 173 595 * 60;
#X obj 101 509 loadbang;
#X text 83 479 calibrate every n hours;
#X msg 101 568 1;
#X obj 97 685 s calibrate;
#X msg 178 562 6;
#X obj 267 582 r osc-in;
#X obj 267 606 route calibrate;
#X obj 270 639 bng 19 250 50 0 empty empty empty 0 -10 0 12 #fcfcfc #000000 #000000;
#X obj 270 677 s calibrate;
#X text 256 549 calibrate;
#X msg 104 855 \$1;
#X msg 226 859 \$1;
#X obj 103 954 s sensor1;
#X obj 226 954 s sensor2;
#X obj 103 919 filter-and-scale;
#X obj 226 918 filter-and-scale;
#X msg 619 860 10;
#X obj 100 780 r osc-in;
#X obj 100 804 route touch1 touch2;
#X text 1826 1330 comment;
#X obj 576 104 r osc-in;
#X obj 576 128 route adc;
#X obj 576 152 unpack f f f f;
#X obj 614 263 s pot;
#X obj 610 192 / 3.3;
#X obj 610 216 expr 1 - $f1;
#X obj 434 259 r pot;
#X obj 355 358 s~ knob;
#X msg 349 127 1;
#X msg 690 878 0.02;
#X obj 395 578 loadbang;
#X obj 395 602 delay 2000;
#X connect 1 0 18 0;
#X connect 1 0 19 0;
#X connect 3 0 58 0;
#X connect 4 1 1 0;
#X connect 5 0 6 0;
#X connect 6 0 17 0;
#X connect 7 0 11 0;
#X connect 11 0 8 0;
#X connect 11 1 8 0;
#X connect 11 2 9 0;
#X connect 12 0 13 0;
#X connect 13 0 46 0;
#X connect 13 0 59 0;
#X connect 14 0 57 0;
#X connect 15 0 14 0;
#X connect 17 0 4 0;
#X connect 19 0 0 0;
#X connect 19 0 20 0;
#X connect 21 0 22 0;
#X connect 22 0 23 0;
#X connect 24 0 25 0;
#X connect 25 0 23 0;
#X connect 27 0 33 0;
#X connect 28 0 27 0;
#X connect 29 0 28 1;
#X connect 30 0 34 0;
#X connect 30 0 32 0;
#X connect 32 0 28 0;
#X connect 34 0 29 0;
#X connect 35 0 36 0;
#X connect 36 0 37 0;
#X connect 37 0 38 0;
#X connect 40 0 44 0;
#X connect 41 0 45 0;
#X connect 44 0 42 0;
#X connect 45 0 43 0;
#X connect 47 0 48 0;
#X connect 48 0 40 0;
#X connect 48 1 41 0;
#X connect 50 0 51 0;
#X connect 51 0 52 0;
#X connect 52 1 54 0;
#X connect 54 0 55 0;
#X connect 55 0 53 0;
#X connect 56 0 15 0;
#X connect 58 0 15 0;
#X connect 60 0 61 0;
#X connect 61 0 37 0;
#X restore 268 81 pd mapping;
#X f 16;
#X obj 435 462 declare -path ./bop, f 24;
#X obj 45 1206 dac~, f 39;
#X obj 47 577 catch~ left;
#X obj 338 578 catch~ right;
#X obj 338 647 bop.reverb~;
#A saved size 0.592857;
#A saved damp 0.835714;
#A saved cutoff 5000;
#A saved wet 0.857143;
#A saved dry 1;
#X obj 435 491 declare -path ./bop/babs;
#X obj 317 978 *~;
#X obj 45 962 *~;
#N canvas 507 80 614 872 getvoice 0;
#X obj 190 553 babs.counter, f 16;
#X obj 242 798 file handle;
#X obj 348 691 file which;
#X obj 348 727 unpack s f;
#X msg 348 655 symbol persist/voice.txt;
#X msg 348 758 open \$1 c;
#X obj 190 262 file handle;
#X obj 279 150 file which;
#X obj 279 186 unpack s f;
#X msg 279 114 symbol persist/voice.txt;
#X obj 190 10 loadbang;
#X floatatom 190 394 5 0 0 0 - - - 0;
#X obj 190 43 bng 19 250 50 0 empty empty empty 0 -10 0 12 #fcfcfc #000000 #000000;
#X msg 279 217 open \$1;
#X obj 190 70 t b b, f 13;
#X msg 190 143 1 \, close;
#X msg 242 679 close;
#X obj 295 729 + 48;
#X obj 190 300 - 48;
#X obj 190 615 t f b f b, f 23;
#X obj 264 303 print file-write;
#X text 394 183 read voice from file at load;
#X text 451 717 save voice to file;
#X obj 190 108 delay 5;
#X obj 190 495 s \$0-nextvoice;
#X obj 190 524 r \$0-nextvoice;
#X obj 190 826 s active-voice;
#X floatatom 17 47 12 0 0 0 - active-voice - 0;
#X obj 203 335 r osc-in;
#X obj 190 426 t b f, f 16;
#X obj 203 359 route voice;
#X text 275 334 receive voice as OSC command;
#X obj 17 18 bng 19 250 50 0 \$0-nextvoice \$0-nextvoice next\ voice 24 10 0 12 #fcfcfc #000000 #000000;
#X floatatom 262 582 5 0 0 0 - - - 0;
#X floatatom 114 575 5 0 0 0 - - - 0;
#X obj 190 577 % 4;
#X connect 0 0 33 0;
#X connect 0 0 35 0;
#X connect 2 0 3 0;
#X connect 3 0 5 0;
#X connect 4 0 2 0;
#X connect 5 0 1 0;
#X connect 6 0 18 0;
#X connect 6 1 20 0;
#X connect 7 0 8 0;
#X connect 8 0 13 0;
#X connect 9 0 7 0;
#X connect 10 0 12 0;
#X connect 11 0 29 0;
#X connect 12 0 14 0;
#X connect 13 0 6 0;
#X connect 14 0 23 0;
#X connect 14 1 9 0;
#X connect 15 0 6 0;
#X connect 16 0 1 0;
#X connect 17 0 1 0;
#X connect 18 0 11 0;
#X connect 19 0 26 0;
#X connect 19 1 16 0;
#X connect 19 2 17 0;
#X connect 19 3 4 0;
#X connect 23 0 15 0;
#X connect 25 0 0 0;
#X connect 28 0 30 0;
#X connect 29 0 24 0;
#X connect 29 1 0 1;
#X connect 30 0 11 0;
#X connect 35 0 19 0;
#X connect 35 0 34 0;
#X coords 0 -1 1 1 115 65 2 10 10;
#X restore 266 265 pd getvoice;
#X obj 41 268 voice.0 0;
#X obj 41 287 voice.1 1;
#X obj 43 171 bng 19 250 50 0 calibrate calibrate calibrate 21 10 0 12 #fcfcfc #000000 #000000;
#X obj 43 127 nbx 4 17 0 50 0 1 sensitivity sensitivity sensitvity 55 8 0 12 #fcfcfc #000000 #000000 3 256;
#X obj 43 149 nbx 4 17 0 1 0 1 floor floor floor 55 8 0 12 #fcfcfc #000000 #000000 0.1 256;
#X obj 45 1003 clip~ -1 1;
#X obj 317 1011 clip~ -1 1;
#X obj 47 642 bop.reverb~;
#A saved size 0.592857;
#A saved damp 0.835714;
#A saved cutoff 5000;
#A saved wet 0.857143;
#A saved dry 1;
#X obj 41 306 voice.2 2;
#X obj 41 325 voice.3 3;
#X obj 46 79 hsl 162 19 0 1 0 0 sensor1 empty sensor1 10 10 0 12 #fcfcfc #000000 #000000 0 1;
#X obj 46 98 hsl 162 19 0 1 0 0 sensor2 empty sensor2 10 10 0 12 #fcfcfc #000000 #000000 0 1;
#X obj 426 15 cnv 19 250 200 empty empty bopOS\ boilerplate 20 12 0 12 #c7c6ff #404040 0;
#X obj 444 127 declare -path ../../pd;
#X msg 444 84 \; pd dsp 1;
#X obj 444 55 loadbang, f 9;
#X obj 444 165 bopos.osc, f 10;
#X obj 444 146 bopos.feedback, f 16;
#X msg 436 276 io create touch1 mpr121 0x5A;
#X msg 455 303 io create touch2 mpr121 0x5C;
#X obj 436 427 s osc-in;
#X obj 471 242 loadbang;
#X obj 179 468 noise~;
#X obj 179 492 lop~ 800;
#X obj 179 557 *~ 0.1, f 11;
#X msg 471 336 io create adc ads1115 0x48;
#X obj 63 928 r~ knob;
#X obj 335 947 r~ knob;
#X obj 162 963 r osc-in;
#X obj 162 987 route mute;
#X obj 162 1043 clip 0 1;
#X obj 45 1170 *~;
#X obj 299 1171 *~;
#X obj 168 747 r osc-in;
#X obj 168 795 clip 0 1;
#X obj 168 771 route gain;
#X obj 46 876 *~;
#X obj 317 879 *~;
#X obj 162 1014 expr 1- $f1;
#X msg 489 363 io create oled io_ssd1306 0x3C;
#X msg 518 165 id -1;
#X msg 522 187 id 0;
#X obj 253 444 r osc-in;
#X obj 253 468 route noise;
#X obj 253 527 babs.scale 0 1 0 0.2;
#X obj 253 496 clip 0 1;
#X obj 160 1102 line~;
#X msg 162 1071 \$1 10;
#X obj 166 851 line~;
#X msg 168 820 \$1 10;
#X obj 243 771 loadbang;
#X msg 243 795 0.2;
#X obj 239 963 loadbang;
#X msg 239 987 0;
#X obj 340 444 loadbang;
#X msg 283 809 1;
#X text 467 561 custom OSC messages noise [0 - 1] \; mute [0 - 1] \; gain [0 - 1] \; calibrate \; sens;
#X msg 475 389 poll 20;
#X msg 340 468 0;
#X connect 8 0 22 0;
#X connect 9 0 10 0;
#X connect 10 0 52 1;
#X connect 12 0 21 0;
#X connect 13 0 20 0;
#X connect 20 0 46 0;
#X connect 21 0 47 1;
#X connect 22 0 51 0;
#X connect 30 0 29 0;
#X connect 33 0 35 0;
#X connect 34 0 35 0;
#X connect 36 0 33 0;
#X connect 36 0 34 0;
#X connect 36 0 40 0;
#X connect 36 0 54 0;
#X connect 36 0 72 0;
#X connect 37 0 38 0;
#X connect 38 0 39 0;
#X connect 39 0 22 0;
#X connect 39 0 10 0;
#X connect 40 0 35 0;
#X connect 41 0 13 1;
#X connect 42 0 12 1;
#X connect 43 0 44 0;
#X connect 44 0 53 0;
#X connect 45 0 62 0;
#X connect 46 0 7 0;
#X connect 47 0 7 1;
#X connect 48 0 50 0;
#X connect 49 0 64 0;
#X connect 50 0 49 0;
#X connect 51 0 13 0;
#X connect 52 0 12 0;
#X connect 53 0 45 0;
#X connect 55 0 31 0;
#X connect 56 0 31 0;
#X connect 57 0 58 0;
#X connect 58 0 60 0;
#X connect 59 0 39 1;
#X connect 60 0 59 0;
#X connect 61 0 46 1;
#X connect 61 0 47 0;
#X connect 62 0 61 0;
#X connect 63 0 52 0;
#X connect 63 0 51 1;
#X connect 64 0 63 0;
#X connect 65 0 66 0;
#X connect 66 0 49 0;
#X connect 67 0 68 0;
#X connect 68 0 53 0;
#X connect 69 0 73 0;
#X connect 70 0 49 0;
#X connect 73 0 60 0;
