#N canvas 5 32 786 1057 12;
#X declare -path ./bop;
#X declare -path ./bop/babs;
#X obj 357 809 bop.instrument~;
#A saved instrument 0;
#X obj 356 901 hip~ 80;
#X obj 358 744 bop.strum, f 23;
#A saved strum 0.993789;
#A saved chord 1;
#A saved shuffle 1;
#A saved root 40;
#A saved octaves 4;
#A saved velocity 1;
#A saved duration 0.971429;
#X obj 356 873 *~ 0.5;
#X msg 360 670 strum \$1;
#X obj 356 929 throw~ left;
#X obj 153 105 declare -path ./bop;
#X obj 422 133 r sensor1;
#X obj 153 133 declare -path ./bop/babs;
#X obj 153 189 == \$1;
#X obj 159 250 switch~;
#X obj 153 217 tgl 16 0 empty empty ENABLE 20 10 0 10 #00ff04 #000000 #000000 0 1;
#X obj 153 161 r active-voice;
#X obj 423 242 babs.gate;
#X obj 476 189 == \$1;
#X obj 476 161 r active-voice;
#X obj 483 215 tgl 19 0 empty empty empty 0 -10 0 12 #fcfcfc #000000 #000000 0 1;
#X floatatom 423 270 5 0 0 0 - - - 0;
#X obj 1194 690 throw~ right;
#X obj 1262 45 r sensor2;
#X obj 873 18 r sensor2;
#X obj 1202 497 bop.semisteps, f 23;
#A saved semisteps 4.3434;
#A saved root 48;
#A saved hold 1;
#A saved duration 0.9;
#A saved velocity 1;
#X obj 1192 630 hip~ 80;
#X obj 1358 367 loadbang;
#X obj 1185 183 babs.gate;
#X obj 1237 133 == \$1;
#X obj 1238 109 r active-voice;
#X obj 1239 159 tgl 19 0 empty empty empty 0 -10 0 12 #fcfcfc #000000 #000000 0 1;
#X floatatom 1191 240 5 0 0 0 - - - 0;
#X obj 1358 391 delay 1000;
#X obj 1192 582 *~;
#X obj 1192 366 sig~;
#X obj 1192 390 babs.slide~ 0.1 0.1;
#X obj 790 254 metro 6000;
#X obj 883 214 > 0;
#X obj 883 238 change;
#X obj 883 262 sel 1;
#X obj 883 286 bng 19 250 50 0 empty empty empty 0 -10 0 12 #fcfcfc #000000 #000000;
#X obj 772 223 == \$1;
#X obj 773 199 r active-voice;
#X obj 1203 548 bop.synth~, f 23;
#A saved osc1-wave 2;
#A saved osc1-tune 0;
#A saved osc1-pulsewidth 0.5;
#A saved osc1-gain 1;
#A saved osc2-wave 0;
#A saved osc2-tune 0;
#A saved osc2-pulsewidth 0.5;
#A saved osc2-gain 1;
#A saved noise 0;
#A saved cutoff 5325.67;
#A saved q 0;
#A saved mono 0;
#A saved slide 0;
#A saved attack 0;
#A saved decay 0.3;
#A saved sustain 0.7;
#A saved release 0.2;
#A saved gain 1;
#X msg 1354 448 cutoff loop 10000 4000 500 8000 10000 8000 10000 4000, f 47;
#X msg 823 425 semisteps 5.4343;
#X msg 802 388 semisteps 4.3434;
#X obj 1140 302 sel 0;
#X msg 1142 334 0;
#X msg 639 491 root 40 \, chord 1;
#X msg 825 468 semisteps 0.4354;
#X obj 802 355 sel 0 1 2;
#X obj 803 328 random 3;
#X msg 658 571 root 48 \, chord 0;
#X obj 639 458 sel 0 1 2;
#X msg 660 528 root 41 \, chord 7;
#X obj 244 981 cnv 19 400 200 empty empty empty 20 12 0 12 #feffc6 #404040 0;
#X obj 188 813 bop.sampler~;
#A saved pack bop_samplepack;
#A saved folder 1;
#A saved mode 0;
#A saved sample 0;
#A saved tune 0;
#A saved root 40;
#A saved loop 1;
#A saved loop-start 0;
#A saved loop-length 1;
#A saved attack 0.1;
#A saved release 0.3;
#A saved gain 1;
#X msg 340 1099 65 127;
#X text 287 991 any samplers used need this param set when they are created;
#X msg 321 1046 folder 0;
#X text 388 1045 numbers folder;
#X text 398 1067 002_coldsamples01 folder;
#X msg 331 1068 folder 1;
#X msg 308 1132 64 127;
#X obj 189 741 bop.strum;
#A saved strum 0;
#A saved chord 0;
#A saved shuffle 1;
#A saved root 24;
#A saved octaves 3;
#A saved velocity 0.888;
#A saved duration 0.444;
#X msg 191 659 strum \$1;
#X obj 224 317 moses 0.5;
#X obj 174 529 babs.scale 0 0.5 0 1;
#X msg 289 1011 pack coldvoice_samplepack;
#X msg 292 968 pack bop_samplepack;
#X obj 321 583 babs.scale 0.5 1 1 0;
#X obj 1042 685 bop.instrument~, f 17;
#A saved instrument 2;
#X msg 1039 543 strum \$1;
#X obj 1074 247 moses 0.5;
#X obj 1042 635 bop.strum;
#A saved strum 0;
#A saved chord 0;
#A saved shuffle 1;
#A saved root 48;
#A saved octaves 3;
#A saved velocity 0.888;
#A saved duration 0.444;
#X obj 993 285 babs.scale 0 0.5 0 1;
#X obj 1192 305 babs.scale 0.5 1 0.5 1;
#X connect 0 0 3 0;
#X connect 1 0 5 0;
#X connect 2 0 0 0;
#X connect 2 1 0 1;
#X connect 3 0 1 0;
#X connect 4 0 2 0;
#X connect 7 0 13 0;
#X connect 9 0 11 0;
#X connect 11 0 10 0;
#X connect 12 0 9 0;
#X connect 13 0 17 0;
#X connect 14 0 16 0;
#X connect 15 0 14 0;
#X connect 16 0 13 1;
#X connect 17 0 64 0;
#X connect 19 0 24 0;
#X connect 20 0 34 0;
#X connect 21 0 40 0;
#X connect 21 1 40 1;
#X connect 22 0 18 0;
#X connect 23 0 29 0;
#X connect 24 0 28 0;
#X connect 25 0 27 0;
#X connect 26 0 25 0;
#X connect 27 0 24 1;
#X connect 28 0 44 0;
#X connect 28 0 71 0;
#X connect 29 0 41 0;
#X connect 30 0 22 0;
#X connect 31 0 32 0;
#X connect 32 0 30 0;
#X connect 34 0 35 0;
#X connect 35 0 36 0;
#X connect 36 0 37 0;
#X connect 37 0 49 0;
#X connect 38 0 33 0;
#X connect 39 0 38 0;
#X connect 40 0 30 1;
#X connect 41 0 21 1;
#X connect 42 0 21 1;
#X connect 43 0 21 1;
#X connect 44 0 45 0;
#X connect 45 0 31 0;
#X connect 46 0 2 1;
#X connect 47 0 21 1;
#X connect 48 0 43 0;
#X connect 48 1 42 0;
#X connect 48 2 47 0;
#X connect 49 0 48 0;
#X connect 49 0 51 0;
#X connect 50 0 2 1;
#X connect 51 0 46 0;
#X connect 51 1 52 0;
#X connect 51 2 50 0;
#X connect 52 0 2 1;
#X connect 54 0 5 0;
#X connect 55 0 54 1;
#X connect 57 0 54 1;
#X connect 60 0 54 1;
#X connect 61 0 54 1;
#X connect 62 0 54 0;
#X connect 62 1 54 1;
#X connect 63 0 62 0;
#X connect 64 0 65 0;
#X connect 64 1 68 0;
#X connect 65 0 63 0;
#X connect 66 0 54 1;
#X connect 67 0 54 1;
#X connect 68 0 4 0;
#X connect 69 0 18 0;
#X connect 70 0 72 0;
#X connect 71 0 73 0;
#X connect 71 1 74 0;
#X connect 72 0 69 0;
#X connect 72 1 69 1;
#X connect 73 0 70 0;
#X connect 74 0 31 0;
